%TF.GenerationSoftware,KiCad,Pcbnew,(5.1.10-1-10_14)*%
%TF.CreationDate,2021-07-21T12:25:41-07:00*%
%TF.ProjectId,PASCAL_switchboard,50415343-414c-45f7-9377-69746368626f,rev?*%
%TF.SameCoordinates,Original*%
%TF.FileFunction,Legend,Top*%
%TF.FilePolarity,Positive*%
%FSLAX46Y46*%
G04 Gerber Fmt 4.6, Leading zero omitted, Abs format (unit mm)*
G04 Created by KiCad (PCBNEW (5.1.10-1-10_14)) date 2021-07-21 12:25:41*
%MOMM*%
%LPD*%
G01*
G04 APERTURE LIST*
%ADD10C,0.120000*%
%ADD11C,0.150000*%
G04 APERTURE END LIST*
D10*
%TO.C,DB25*%
X196850000Y-50581325D02*
X197100000Y-51014338D01*
X196600000Y-51014338D02*
X196850000Y-50581325D01*
X197100000Y-51014338D02*
X196600000Y-51014338D01*
X153620000Y-50120000D02*
X153620000Y-37780000D01*
X206840000Y-50120000D02*
X153620000Y-50120000D01*
X206840000Y-37780000D02*
X206840000Y-50120000D01*
%TO.C,12V_1*%
X161260000Y-67180000D02*
X161260000Y-61120000D01*
X161260000Y-61120000D02*
X164070000Y-61120000D01*
X168670000Y-61120000D02*
X171480000Y-61120000D01*
X171480000Y-61120000D02*
X171480000Y-67180000D01*
X171480000Y-71280000D02*
X171480000Y-74340000D01*
X171480000Y-74340000D02*
X161260000Y-74340000D01*
X161260000Y-74340000D02*
X161260000Y-71280000D01*
X165370000Y-60930000D02*
X167370000Y-60930000D01*
%TO.C,12V_2*%
X148560000Y-67180000D02*
X148560000Y-61120000D01*
X148560000Y-61120000D02*
X151370000Y-61120000D01*
X155970000Y-61120000D02*
X158780000Y-61120000D01*
X158780000Y-61120000D02*
X158780000Y-67180000D01*
X158780000Y-71280000D02*
X158780000Y-74340000D01*
X158780000Y-74340000D02*
X148560000Y-74340000D01*
X148560000Y-74340000D02*
X148560000Y-71280000D01*
X152670000Y-60930000D02*
X154670000Y-60930000D01*
%TO.C,12V_3*%
X139970000Y-60930000D02*
X141970000Y-60930000D01*
X135860000Y-74340000D02*
X135860000Y-71280000D01*
X146080000Y-74340000D02*
X135860000Y-74340000D01*
X146080000Y-71280000D02*
X146080000Y-74340000D01*
X146080000Y-61120000D02*
X146080000Y-67180000D01*
X143270000Y-61120000D02*
X146080000Y-61120000D01*
X135860000Y-61120000D02*
X138670000Y-61120000D01*
X135860000Y-67180000D02*
X135860000Y-61120000D01*
%TO.C,12V_4*%
X123160000Y-67180000D02*
X123160000Y-61120000D01*
X123160000Y-61120000D02*
X125970000Y-61120000D01*
X130570000Y-61120000D02*
X133380000Y-61120000D01*
X133380000Y-61120000D02*
X133380000Y-67180000D01*
X133380000Y-71280000D02*
X133380000Y-74340000D01*
X133380000Y-74340000D02*
X123160000Y-74340000D01*
X123160000Y-74340000D02*
X123160000Y-71280000D01*
X127270000Y-60930000D02*
X129270000Y-60930000D01*
%TO.C,24V_1*%
X107920000Y-67180000D02*
X107920000Y-61120000D01*
X107920000Y-61120000D02*
X110730000Y-61120000D01*
X115330000Y-61120000D02*
X118140000Y-61120000D01*
X118140000Y-61120000D02*
X118140000Y-67180000D01*
X118140000Y-71280000D02*
X118140000Y-74340000D01*
X118140000Y-74340000D02*
X107920000Y-74340000D01*
X107920000Y-74340000D02*
X107920000Y-71280000D01*
X112030000Y-60930000D02*
X114030000Y-60930000D01*
%TO.C,24V_2*%
X99330000Y-60930000D02*
X101330000Y-60930000D01*
X95220000Y-74340000D02*
X95220000Y-71280000D01*
X105440000Y-74340000D02*
X95220000Y-74340000D01*
X105440000Y-71280000D02*
X105440000Y-74340000D01*
X105440000Y-61120000D02*
X105440000Y-67180000D01*
X102630000Y-61120000D02*
X105440000Y-61120000D01*
X95220000Y-61120000D02*
X98030000Y-61120000D01*
X95220000Y-67180000D02*
X95220000Y-61120000D01*
%TO.C,24V_3*%
X82520000Y-67180000D02*
X82520000Y-61120000D01*
X82520000Y-61120000D02*
X85330000Y-61120000D01*
X89930000Y-61120000D02*
X92740000Y-61120000D01*
X92740000Y-61120000D02*
X92740000Y-67180000D01*
X92740000Y-71280000D02*
X92740000Y-74340000D01*
X92740000Y-74340000D02*
X82520000Y-74340000D01*
X82520000Y-74340000D02*
X82520000Y-71280000D01*
X86630000Y-60930000D02*
X88630000Y-60930000D01*
%TO.C,5V_1*%
X218710000Y-60930000D02*
X220710000Y-60930000D01*
X214600000Y-74340000D02*
X214600000Y-71280000D01*
X224820000Y-74340000D02*
X214600000Y-74340000D01*
X224820000Y-71280000D02*
X224820000Y-74340000D01*
X224820000Y-61120000D02*
X224820000Y-67180000D01*
X222010000Y-61120000D02*
X224820000Y-61120000D01*
X214600000Y-61120000D02*
X217410000Y-61120000D01*
X214600000Y-67180000D02*
X214600000Y-61120000D01*
%TO.C,5V_2*%
X201900000Y-67180000D02*
X201900000Y-61120000D01*
X201900000Y-61120000D02*
X204710000Y-61120000D01*
X209310000Y-61120000D02*
X212120000Y-61120000D01*
X212120000Y-61120000D02*
X212120000Y-67180000D01*
X212120000Y-71280000D02*
X212120000Y-74340000D01*
X212120000Y-74340000D02*
X201900000Y-74340000D01*
X201900000Y-74340000D02*
X201900000Y-71280000D01*
X206010000Y-60930000D02*
X208010000Y-60930000D01*
%TO.C,5V_3*%
X193310000Y-60930000D02*
X195310000Y-60930000D01*
X189200000Y-74340000D02*
X189200000Y-71280000D01*
X199420000Y-74340000D02*
X189200000Y-74340000D01*
X199420000Y-71280000D02*
X199420000Y-74340000D01*
X199420000Y-61120000D02*
X199420000Y-67180000D01*
X196610000Y-61120000D02*
X199420000Y-61120000D01*
X189200000Y-61120000D02*
X192010000Y-61120000D01*
X189200000Y-67180000D02*
X189200000Y-61120000D01*
%TO.C,5V_4*%
X180610000Y-60930000D02*
X182610000Y-60930000D01*
X176500000Y-74340000D02*
X176500000Y-71280000D01*
X186720000Y-74340000D02*
X176500000Y-74340000D01*
X186720000Y-71280000D02*
X186720000Y-74340000D01*
X186720000Y-61120000D02*
X186720000Y-67180000D01*
X183910000Y-61120000D02*
X186720000Y-61120000D01*
X176500000Y-61120000D02*
X179310000Y-61120000D01*
X176500000Y-67180000D02*
X176500000Y-61120000D01*
%TO.C,Free_1*%
X233950000Y-60930000D02*
X235950000Y-60930000D01*
X229840000Y-74340000D02*
X229840000Y-71280000D01*
X240060000Y-74340000D02*
X229840000Y-74340000D01*
X240060000Y-71280000D02*
X240060000Y-74340000D01*
X240060000Y-61120000D02*
X240060000Y-67180000D01*
X237250000Y-61120000D02*
X240060000Y-61120000D01*
X229840000Y-61120000D02*
X232650000Y-61120000D01*
X229840000Y-67180000D02*
X229840000Y-61120000D01*
%TO.C,Free_2*%
X242540000Y-67180000D02*
X242540000Y-61120000D01*
X242540000Y-61120000D02*
X245350000Y-61120000D01*
X249950000Y-61120000D02*
X252760000Y-61120000D01*
X252760000Y-61120000D02*
X252760000Y-67180000D01*
X252760000Y-71280000D02*
X252760000Y-74340000D01*
X252760000Y-74340000D02*
X242540000Y-74340000D01*
X242540000Y-74340000D02*
X242540000Y-71280000D01*
X246650000Y-60930000D02*
X248650000Y-60930000D01*
%TO.C,Free_3*%
X259350000Y-60930000D02*
X261350000Y-60930000D01*
X255240000Y-74340000D02*
X255240000Y-71280000D01*
X265460000Y-74340000D02*
X255240000Y-74340000D01*
X265460000Y-71280000D02*
X265460000Y-74340000D01*
X265460000Y-61120000D02*
X265460000Y-67180000D01*
X262650000Y-61120000D02*
X265460000Y-61120000D01*
X255240000Y-61120000D02*
X258050000Y-61120000D01*
X255240000Y-67180000D02*
X255240000Y-61120000D01*
%TO.C,REF\u002A\u002A*%
D11*
X270446666Y-41972380D02*
X270113333Y-41496190D01*
X269875238Y-41972380D02*
X269875238Y-40972380D01*
X270256190Y-40972380D01*
X270351428Y-41020000D01*
X270399047Y-41067619D01*
X270446666Y-41162857D01*
X270446666Y-41305714D01*
X270399047Y-41400952D01*
X270351428Y-41448571D01*
X270256190Y-41496190D01*
X269875238Y-41496190D01*
X270875238Y-41448571D02*
X271208571Y-41448571D01*
X271351428Y-41972380D02*
X270875238Y-41972380D01*
X270875238Y-40972380D01*
X271351428Y-40972380D01*
X272113333Y-41448571D02*
X271780000Y-41448571D01*
X271780000Y-41972380D02*
X271780000Y-40972380D01*
X272256190Y-40972380D01*
X272780000Y-40972380D02*
X272780000Y-41210476D01*
X272541904Y-41115238D02*
X272780000Y-41210476D01*
X273018095Y-41115238D01*
X272637142Y-41400952D02*
X272780000Y-41210476D01*
X272922857Y-41400952D01*
X273541904Y-40972380D02*
X273541904Y-41210476D01*
X273303809Y-41115238D02*
X273541904Y-41210476D01*
X273780000Y-41115238D01*
X273399047Y-41400952D02*
X273541904Y-41210476D01*
X273684761Y-41400952D01*
X270446666Y-64832380D02*
X270113333Y-64356190D01*
X269875238Y-64832380D02*
X269875238Y-63832380D01*
X270256190Y-63832380D01*
X270351428Y-63880000D01*
X270399047Y-63927619D01*
X270446666Y-64022857D01*
X270446666Y-64165714D01*
X270399047Y-64260952D01*
X270351428Y-64308571D01*
X270256190Y-64356190D01*
X269875238Y-64356190D01*
X270875238Y-64308571D02*
X271208571Y-64308571D01*
X271351428Y-64832380D02*
X270875238Y-64832380D01*
X270875238Y-63832380D01*
X271351428Y-63832380D01*
X272113333Y-64308571D02*
X271780000Y-64308571D01*
X271780000Y-64832380D02*
X271780000Y-63832380D01*
X272256190Y-63832380D01*
X272780000Y-63832380D02*
X272780000Y-64070476D01*
X272541904Y-63975238D02*
X272780000Y-64070476D01*
X273018095Y-63975238D01*
X272637142Y-64260952D02*
X272780000Y-64070476D01*
X272922857Y-64260952D01*
X273541904Y-63832380D02*
X273541904Y-64070476D01*
X273303809Y-63975238D02*
X273541904Y-64070476D01*
X273780000Y-63975238D01*
X273399047Y-64260952D02*
X273541904Y-64070476D01*
X273684761Y-64260952D01*
X74866666Y-41972380D02*
X74533333Y-41496190D01*
X74295238Y-41972380D02*
X74295238Y-40972380D01*
X74676190Y-40972380D01*
X74771428Y-41020000D01*
X74819047Y-41067619D01*
X74866666Y-41162857D01*
X74866666Y-41305714D01*
X74819047Y-41400952D01*
X74771428Y-41448571D01*
X74676190Y-41496190D01*
X74295238Y-41496190D01*
X75295238Y-41448571D02*
X75628571Y-41448571D01*
X75771428Y-41972380D02*
X75295238Y-41972380D01*
X75295238Y-40972380D01*
X75771428Y-40972380D01*
X76533333Y-41448571D02*
X76200000Y-41448571D01*
X76200000Y-41972380D02*
X76200000Y-40972380D01*
X76676190Y-40972380D01*
X77200000Y-40972380D02*
X77200000Y-41210476D01*
X76961904Y-41115238D02*
X77200000Y-41210476D01*
X77438095Y-41115238D01*
X77057142Y-41400952D02*
X77200000Y-41210476D01*
X77342857Y-41400952D01*
X77961904Y-40972380D02*
X77961904Y-41210476D01*
X77723809Y-41115238D02*
X77961904Y-41210476D01*
X78200000Y-41115238D01*
X77819047Y-41400952D02*
X77961904Y-41210476D01*
X78104761Y-41400952D01*
X213296666Y-48322380D02*
X212963333Y-47846190D01*
X212725238Y-48322380D02*
X212725238Y-47322380D01*
X213106190Y-47322380D01*
X213201428Y-47370000D01*
X213249047Y-47417619D01*
X213296666Y-47512857D01*
X213296666Y-47655714D01*
X213249047Y-47750952D01*
X213201428Y-47798571D01*
X213106190Y-47846190D01*
X212725238Y-47846190D01*
X213725238Y-47798571D02*
X214058571Y-47798571D01*
X214201428Y-48322380D02*
X213725238Y-48322380D01*
X213725238Y-47322380D01*
X214201428Y-47322380D01*
X214963333Y-47798571D02*
X214630000Y-47798571D01*
X214630000Y-48322380D02*
X214630000Y-47322380D01*
X215106190Y-47322380D01*
X215630000Y-47322380D02*
X215630000Y-47560476D01*
X215391904Y-47465238D02*
X215630000Y-47560476D01*
X215868095Y-47465238D01*
X215487142Y-47750952D02*
X215630000Y-47560476D01*
X215772857Y-47750952D01*
X216391904Y-47322380D02*
X216391904Y-47560476D01*
X216153809Y-47465238D02*
X216391904Y-47560476D01*
X216630000Y-47465238D01*
X216249047Y-47750952D02*
X216391904Y-47560476D01*
X216534761Y-47750952D01*
X74866666Y-64832380D02*
X74533333Y-64356190D01*
X74295238Y-64832380D02*
X74295238Y-63832380D01*
X74676190Y-63832380D01*
X74771428Y-63880000D01*
X74819047Y-63927619D01*
X74866666Y-64022857D01*
X74866666Y-64165714D01*
X74819047Y-64260952D01*
X74771428Y-64308571D01*
X74676190Y-64356190D01*
X74295238Y-64356190D01*
X75295238Y-64308571D02*
X75628571Y-64308571D01*
X75771428Y-64832380D02*
X75295238Y-64832380D01*
X75295238Y-63832380D01*
X75771428Y-63832380D01*
X76533333Y-64308571D02*
X76200000Y-64308571D01*
X76200000Y-64832380D02*
X76200000Y-63832380D01*
X76676190Y-63832380D01*
X77200000Y-63832380D02*
X77200000Y-64070476D01*
X76961904Y-63975238D02*
X77200000Y-64070476D01*
X77438095Y-63975238D01*
X77057142Y-64260952D02*
X77200000Y-64070476D01*
X77342857Y-64260952D01*
X77961904Y-63832380D02*
X77961904Y-64070476D01*
X77723809Y-63975238D02*
X77961904Y-64070476D01*
X78200000Y-63975238D01*
X77819047Y-64260952D02*
X77961904Y-64070476D01*
X78104761Y-64260952D01*
%TO.C,DB25*%
X178515714Y-51512380D02*
X178515714Y-50512380D01*
X178753809Y-50512380D01*
X178896666Y-50560000D01*
X178991904Y-50655238D01*
X179039523Y-50750476D01*
X179087142Y-50940952D01*
X179087142Y-51083809D01*
X179039523Y-51274285D01*
X178991904Y-51369523D01*
X178896666Y-51464761D01*
X178753809Y-51512380D01*
X178515714Y-51512380D01*
X179849047Y-50988571D02*
X179991904Y-51036190D01*
X180039523Y-51083809D01*
X180087142Y-51179047D01*
X180087142Y-51321904D01*
X180039523Y-51417142D01*
X179991904Y-51464761D01*
X179896666Y-51512380D01*
X179515714Y-51512380D01*
X179515714Y-50512380D01*
X179849047Y-50512380D01*
X179944285Y-50560000D01*
X179991904Y-50607619D01*
X180039523Y-50702857D01*
X180039523Y-50798095D01*
X179991904Y-50893333D01*
X179944285Y-50940952D01*
X179849047Y-50988571D01*
X179515714Y-50988571D01*
X180468095Y-50607619D02*
X180515714Y-50560000D01*
X180610952Y-50512380D01*
X180849047Y-50512380D01*
X180944285Y-50560000D01*
X180991904Y-50607619D01*
X181039523Y-50702857D01*
X181039523Y-50798095D01*
X180991904Y-50940952D01*
X180420476Y-51512380D01*
X181039523Y-51512380D01*
X181944285Y-50512380D02*
X181468095Y-50512380D01*
X181420476Y-50988571D01*
X181468095Y-50940952D01*
X181563333Y-50893333D01*
X181801428Y-50893333D01*
X181896666Y-50940952D01*
X181944285Y-50988571D01*
X181991904Y-51083809D01*
X181991904Y-51321904D01*
X181944285Y-51417142D01*
X181896666Y-51464761D01*
X181801428Y-51512380D01*
X181563333Y-51512380D01*
X181468095Y-51464761D01*
X181420476Y-51417142D01*
%TO.C,12V_1*%
X164893809Y-60382380D02*
X164322380Y-60382380D01*
X164608095Y-60382380D02*
X164608095Y-59382380D01*
X164512857Y-59525238D01*
X164417619Y-59620476D01*
X164322380Y-59668095D01*
X165274761Y-59477619D02*
X165322380Y-59430000D01*
X165417619Y-59382380D01*
X165655714Y-59382380D01*
X165750952Y-59430000D01*
X165798571Y-59477619D01*
X165846190Y-59572857D01*
X165846190Y-59668095D01*
X165798571Y-59810952D01*
X165227142Y-60382380D01*
X165846190Y-60382380D01*
X166131904Y-59382380D02*
X166465238Y-60382380D01*
X166798571Y-59382380D01*
X166893809Y-60477619D02*
X167655714Y-60477619D01*
X168417619Y-60382380D02*
X167846190Y-60382380D01*
X168131904Y-60382380D02*
X168131904Y-59382380D01*
X168036666Y-59525238D01*
X167941428Y-59620476D01*
X167846190Y-59668095D01*
%TO.C,12V_2*%
X152193809Y-60382380D02*
X151622380Y-60382380D01*
X151908095Y-60382380D02*
X151908095Y-59382380D01*
X151812857Y-59525238D01*
X151717619Y-59620476D01*
X151622380Y-59668095D01*
X152574761Y-59477619D02*
X152622380Y-59430000D01*
X152717619Y-59382380D01*
X152955714Y-59382380D01*
X153050952Y-59430000D01*
X153098571Y-59477619D01*
X153146190Y-59572857D01*
X153146190Y-59668095D01*
X153098571Y-59810952D01*
X152527142Y-60382380D01*
X153146190Y-60382380D01*
X153431904Y-59382380D02*
X153765238Y-60382380D01*
X154098571Y-59382380D01*
X154193809Y-60477619D02*
X154955714Y-60477619D01*
X155146190Y-59477619D02*
X155193809Y-59430000D01*
X155289047Y-59382380D01*
X155527142Y-59382380D01*
X155622380Y-59430000D01*
X155670000Y-59477619D01*
X155717619Y-59572857D01*
X155717619Y-59668095D01*
X155670000Y-59810952D01*
X155098571Y-60382380D01*
X155717619Y-60382380D01*
%TO.C,12V_3*%
X139493809Y-60382380D02*
X138922380Y-60382380D01*
X139208095Y-60382380D02*
X139208095Y-59382380D01*
X139112857Y-59525238D01*
X139017619Y-59620476D01*
X138922380Y-59668095D01*
X139874761Y-59477619D02*
X139922380Y-59430000D01*
X140017619Y-59382380D01*
X140255714Y-59382380D01*
X140350952Y-59430000D01*
X140398571Y-59477619D01*
X140446190Y-59572857D01*
X140446190Y-59668095D01*
X140398571Y-59810952D01*
X139827142Y-60382380D01*
X140446190Y-60382380D01*
X140731904Y-59382380D02*
X141065238Y-60382380D01*
X141398571Y-59382380D01*
X141493809Y-60477619D02*
X142255714Y-60477619D01*
X142398571Y-59382380D02*
X143017619Y-59382380D01*
X142684285Y-59763333D01*
X142827142Y-59763333D01*
X142922380Y-59810952D01*
X142970000Y-59858571D01*
X143017619Y-59953809D01*
X143017619Y-60191904D01*
X142970000Y-60287142D01*
X142922380Y-60334761D01*
X142827142Y-60382380D01*
X142541428Y-60382380D01*
X142446190Y-60334761D01*
X142398571Y-60287142D01*
%TO.C,12V_4*%
X126793809Y-60382380D02*
X126222380Y-60382380D01*
X126508095Y-60382380D02*
X126508095Y-59382380D01*
X126412857Y-59525238D01*
X126317619Y-59620476D01*
X126222380Y-59668095D01*
X127174761Y-59477619D02*
X127222380Y-59430000D01*
X127317619Y-59382380D01*
X127555714Y-59382380D01*
X127650952Y-59430000D01*
X127698571Y-59477619D01*
X127746190Y-59572857D01*
X127746190Y-59668095D01*
X127698571Y-59810952D01*
X127127142Y-60382380D01*
X127746190Y-60382380D01*
X128031904Y-59382380D02*
X128365238Y-60382380D01*
X128698571Y-59382380D01*
X128793809Y-60477619D02*
X129555714Y-60477619D01*
X130222380Y-59715714D02*
X130222380Y-60382380D01*
X129984285Y-59334761D02*
X129746190Y-60049047D01*
X130365238Y-60049047D01*
%TO.C,24V_1*%
X110982380Y-59477619D02*
X111030000Y-59430000D01*
X111125238Y-59382380D01*
X111363333Y-59382380D01*
X111458571Y-59430000D01*
X111506190Y-59477619D01*
X111553809Y-59572857D01*
X111553809Y-59668095D01*
X111506190Y-59810952D01*
X110934761Y-60382380D01*
X111553809Y-60382380D01*
X112410952Y-59715714D02*
X112410952Y-60382380D01*
X112172857Y-59334761D02*
X111934761Y-60049047D01*
X112553809Y-60049047D01*
X112791904Y-59382380D02*
X113125238Y-60382380D01*
X113458571Y-59382380D01*
X113553809Y-60477619D02*
X114315714Y-60477619D01*
X115077619Y-60382380D02*
X114506190Y-60382380D01*
X114791904Y-60382380D02*
X114791904Y-59382380D01*
X114696666Y-59525238D01*
X114601428Y-59620476D01*
X114506190Y-59668095D01*
%TO.C,24V_2*%
X98282380Y-59477619D02*
X98330000Y-59430000D01*
X98425238Y-59382380D01*
X98663333Y-59382380D01*
X98758571Y-59430000D01*
X98806190Y-59477619D01*
X98853809Y-59572857D01*
X98853809Y-59668095D01*
X98806190Y-59810952D01*
X98234761Y-60382380D01*
X98853809Y-60382380D01*
X99710952Y-59715714D02*
X99710952Y-60382380D01*
X99472857Y-59334761D02*
X99234761Y-60049047D01*
X99853809Y-60049047D01*
X100091904Y-59382380D02*
X100425238Y-60382380D01*
X100758571Y-59382380D01*
X100853809Y-60477619D02*
X101615714Y-60477619D01*
X101806190Y-59477619D02*
X101853809Y-59430000D01*
X101949047Y-59382380D01*
X102187142Y-59382380D01*
X102282380Y-59430000D01*
X102330000Y-59477619D01*
X102377619Y-59572857D01*
X102377619Y-59668095D01*
X102330000Y-59810952D01*
X101758571Y-60382380D01*
X102377619Y-60382380D01*
%TO.C,24V_3*%
X85582380Y-59477619D02*
X85630000Y-59430000D01*
X85725238Y-59382380D01*
X85963333Y-59382380D01*
X86058571Y-59430000D01*
X86106190Y-59477619D01*
X86153809Y-59572857D01*
X86153809Y-59668095D01*
X86106190Y-59810952D01*
X85534761Y-60382380D01*
X86153809Y-60382380D01*
X87010952Y-59715714D02*
X87010952Y-60382380D01*
X86772857Y-59334761D02*
X86534761Y-60049047D01*
X87153809Y-60049047D01*
X87391904Y-59382380D02*
X87725238Y-60382380D01*
X88058571Y-59382380D01*
X88153809Y-60477619D02*
X88915714Y-60477619D01*
X89058571Y-59382380D02*
X89677619Y-59382380D01*
X89344285Y-59763333D01*
X89487142Y-59763333D01*
X89582380Y-59810952D01*
X89630000Y-59858571D01*
X89677619Y-59953809D01*
X89677619Y-60191904D01*
X89630000Y-60287142D01*
X89582380Y-60334761D01*
X89487142Y-60382380D01*
X89201428Y-60382380D01*
X89106190Y-60334761D01*
X89058571Y-60287142D01*
%TO.C,5V_1*%
X218662380Y-59382380D02*
X218186190Y-59382380D01*
X218138571Y-59858571D01*
X218186190Y-59810952D01*
X218281428Y-59763333D01*
X218519523Y-59763333D01*
X218614761Y-59810952D01*
X218662380Y-59858571D01*
X218710000Y-59953809D01*
X218710000Y-60191904D01*
X218662380Y-60287142D01*
X218614761Y-60334761D01*
X218519523Y-60382380D01*
X218281428Y-60382380D01*
X218186190Y-60334761D01*
X218138571Y-60287142D01*
X218995714Y-59382380D02*
X219329047Y-60382380D01*
X219662380Y-59382380D01*
X219757619Y-60477619D02*
X220519523Y-60477619D01*
X221281428Y-60382380D02*
X220710000Y-60382380D01*
X220995714Y-60382380D02*
X220995714Y-59382380D01*
X220900476Y-59525238D01*
X220805238Y-59620476D01*
X220710000Y-59668095D01*
%TO.C,5V_2*%
X205962380Y-59382380D02*
X205486190Y-59382380D01*
X205438571Y-59858571D01*
X205486190Y-59810952D01*
X205581428Y-59763333D01*
X205819523Y-59763333D01*
X205914761Y-59810952D01*
X205962380Y-59858571D01*
X206010000Y-59953809D01*
X206010000Y-60191904D01*
X205962380Y-60287142D01*
X205914761Y-60334761D01*
X205819523Y-60382380D01*
X205581428Y-60382380D01*
X205486190Y-60334761D01*
X205438571Y-60287142D01*
X206295714Y-59382380D02*
X206629047Y-60382380D01*
X206962380Y-59382380D01*
X207057619Y-60477619D02*
X207819523Y-60477619D01*
X208010000Y-59477619D02*
X208057619Y-59430000D01*
X208152857Y-59382380D01*
X208390952Y-59382380D01*
X208486190Y-59430000D01*
X208533809Y-59477619D01*
X208581428Y-59572857D01*
X208581428Y-59668095D01*
X208533809Y-59810952D01*
X207962380Y-60382380D01*
X208581428Y-60382380D01*
%TO.C,5V_3*%
X193262380Y-59382380D02*
X192786190Y-59382380D01*
X192738571Y-59858571D01*
X192786190Y-59810952D01*
X192881428Y-59763333D01*
X193119523Y-59763333D01*
X193214761Y-59810952D01*
X193262380Y-59858571D01*
X193310000Y-59953809D01*
X193310000Y-60191904D01*
X193262380Y-60287142D01*
X193214761Y-60334761D01*
X193119523Y-60382380D01*
X192881428Y-60382380D01*
X192786190Y-60334761D01*
X192738571Y-60287142D01*
X193595714Y-59382380D02*
X193929047Y-60382380D01*
X194262380Y-59382380D01*
X194357619Y-60477619D02*
X195119523Y-60477619D01*
X195262380Y-59382380D02*
X195881428Y-59382380D01*
X195548095Y-59763333D01*
X195690952Y-59763333D01*
X195786190Y-59810952D01*
X195833809Y-59858571D01*
X195881428Y-59953809D01*
X195881428Y-60191904D01*
X195833809Y-60287142D01*
X195786190Y-60334761D01*
X195690952Y-60382380D01*
X195405238Y-60382380D01*
X195310000Y-60334761D01*
X195262380Y-60287142D01*
%TO.C,5V_4*%
X180562380Y-59382380D02*
X180086190Y-59382380D01*
X180038571Y-59858571D01*
X180086190Y-59810952D01*
X180181428Y-59763333D01*
X180419523Y-59763333D01*
X180514761Y-59810952D01*
X180562380Y-59858571D01*
X180610000Y-59953809D01*
X180610000Y-60191904D01*
X180562380Y-60287142D01*
X180514761Y-60334761D01*
X180419523Y-60382380D01*
X180181428Y-60382380D01*
X180086190Y-60334761D01*
X180038571Y-60287142D01*
X180895714Y-59382380D02*
X181229047Y-60382380D01*
X181562380Y-59382380D01*
X181657619Y-60477619D02*
X182419523Y-60477619D01*
X183086190Y-59715714D02*
X183086190Y-60382380D01*
X182848095Y-59334761D02*
X182610000Y-60049047D01*
X183229047Y-60049047D01*
%TO.C,Free_1*%
X233069047Y-59858571D02*
X232735714Y-59858571D01*
X232735714Y-60382380D02*
X232735714Y-59382380D01*
X233211904Y-59382380D01*
X233592857Y-60382380D02*
X233592857Y-59715714D01*
X233592857Y-59906190D02*
X233640476Y-59810952D01*
X233688095Y-59763333D01*
X233783333Y-59715714D01*
X233878571Y-59715714D01*
X234592857Y-60334761D02*
X234497619Y-60382380D01*
X234307142Y-60382380D01*
X234211904Y-60334761D01*
X234164285Y-60239523D01*
X234164285Y-59858571D01*
X234211904Y-59763333D01*
X234307142Y-59715714D01*
X234497619Y-59715714D01*
X234592857Y-59763333D01*
X234640476Y-59858571D01*
X234640476Y-59953809D01*
X234164285Y-60049047D01*
X235450000Y-60334761D02*
X235354761Y-60382380D01*
X235164285Y-60382380D01*
X235069047Y-60334761D01*
X235021428Y-60239523D01*
X235021428Y-59858571D01*
X235069047Y-59763333D01*
X235164285Y-59715714D01*
X235354761Y-59715714D01*
X235450000Y-59763333D01*
X235497619Y-59858571D01*
X235497619Y-59953809D01*
X235021428Y-60049047D01*
X235688095Y-60477619D02*
X236450000Y-60477619D01*
X237211904Y-60382380D02*
X236640476Y-60382380D01*
X236926190Y-60382380D02*
X236926190Y-59382380D01*
X236830952Y-59525238D01*
X236735714Y-59620476D01*
X236640476Y-59668095D01*
%TO.C,Free_2*%
X245769047Y-59858571D02*
X245435714Y-59858571D01*
X245435714Y-60382380D02*
X245435714Y-59382380D01*
X245911904Y-59382380D01*
X246292857Y-60382380D02*
X246292857Y-59715714D01*
X246292857Y-59906190D02*
X246340476Y-59810952D01*
X246388095Y-59763333D01*
X246483333Y-59715714D01*
X246578571Y-59715714D01*
X247292857Y-60334761D02*
X247197619Y-60382380D01*
X247007142Y-60382380D01*
X246911904Y-60334761D01*
X246864285Y-60239523D01*
X246864285Y-59858571D01*
X246911904Y-59763333D01*
X247007142Y-59715714D01*
X247197619Y-59715714D01*
X247292857Y-59763333D01*
X247340476Y-59858571D01*
X247340476Y-59953809D01*
X246864285Y-60049047D01*
X248150000Y-60334761D02*
X248054761Y-60382380D01*
X247864285Y-60382380D01*
X247769047Y-60334761D01*
X247721428Y-60239523D01*
X247721428Y-59858571D01*
X247769047Y-59763333D01*
X247864285Y-59715714D01*
X248054761Y-59715714D01*
X248150000Y-59763333D01*
X248197619Y-59858571D01*
X248197619Y-59953809D01*
X247721428Y-60049047D01*
X248388095Y-60477619D02*
X249150000Y-60477619D01*
X249340476Y-59477619D02*
X249388095Y-59430000D01*
X249483333Y-59382380D01*
X249721428Y-59382380D01*
X249816666Y-59430000D01*
X249864285Y-59477619D01*
X249911904Y-59572857D01*
X249911904Y-59668095D01*
X249864285Y-59810952D01*
X249292857Y-60382380D01*
X249911904Y-60382380D01*
%TO.C,Free_3*%
X258469047Y-59858571D02*
X258135714Y-59858571D01*
X258135714Y-60382380D02*
X258135714Y-59382380D01*
X258611904Y-59382380D01*
X258992857Y-60382380D02*
X258992857Y-59715714D01*
X258992857Y-59906190D02*
X259040476Y-59810952D01*
X259088095Y-59763333D01*
X259183333Y-59715714D01*
X259278571Y-59715714D01*
X259992857Y-60334761D02*
X259897619Y-60382380D01*
X259707142Y-60382380D01*
X259611904Y-60334761D01*
X259564285Y-60239523D01*
X259564285Y-59858571D01*
X259611904Y-59763333D01*
X259707142Y-59715714D01*
X259897619Y-59715714D01*
X259992857Y-59763333D01*
X260040476Y-59858571D01*
X260040476Y-59953809D01*
X259564285Y-60049047D01*
X260850000Y-60334761D02*
X260754761Y-60382380D01*
X260564285Y-60382380D01*
X260469047Y-60334761D01*
X260421428Y-60239523D01*
X260421428Y-59858571D01*
X260469047Y-59763333D01*
X260564285Y-59715714D01*
X260754761Y-59715714D01*
X260850000Y-59763333D01*
X260897619Y-59858571D01*
X260897619Y-59953809D01*
X260421428Y-60049047D01*
X261088095Y-60477619D02*
X261850000Y-60477619D01*
X261992857Y-59382380D02*
X262611904Y-59382380D01*
X262278571Y-59763333D01*
X262421428Y-59763333D01*
X262516666Y-59810952D01*
X262564285Y-59858571D01*
X262611904Y-59953809D01*
X262611904Y-60191904D01*
X262564285Y-60287142D01*
X262516666Y-60334761D01*
X262421428Y-60382380D01*
X262135714Y-60382380D01*
X262040476Y-60334761D01*
X261992857Y-60287142D01*
%TD*%
M02*
