M48
; DRILL file {KiCad (5.1.10-1-10_14)} date Wednesday, July 21, 2021 at 12:25:55 PM
; FORMAT={-:-/ absolute / inch / decimal}
; #@! TF.CreationDate,2021-07-21T12:25:55-07:00
; #@! TF.GenerationSoftware,Kicad,Pcbnew,(5.1.10-1-10_14)
; #@! TF.FileFunction,Plated,1,2,PTH
FMAT,2
INCH
T1C0.0394
T2C0.1260
%
G90
G05
T1
X6.4413Y-1.9
X6.4959Y-1.7882
X6.5504Y-1.9
X6.6049Y-1.7882
X6.6594Y-1.9
X6.714Y-1.7882
X6.7685Y-1.9
X6.823Y-1.7882
X6.8776Y-1.9
X6.9321Y-1.7882
X6.9866Y-1.9
X7.0411Y-1.7882
X7.0957Y-1.9
X7.1502Y-1.7882
X7.2047Y-1.9
X7.2593Y-1.7882
X7.3138Y-1.9
X7.3683Y-1.7882
X7.4228Y-1.9
X7.4774Y-1.7882
X7.5319Y-1.9
X7.5864Y-1.7882
X7.6409Y-1.9
X7.6955Y-1.7882
X7.75Y-1.9
T2
X6.1685Y-1.8441
X8.0228Y-1.8441
T1
G00X3.2728Y-2.6961
M15
G01X3.2728Y-2.7551
M16
G05
G00X3.4106Y-2.45
M15
G01X3.4894Y-2.45
M16
G05
G00X3.4244Y-2.6862
M15
G01X3.4756Y-2.6862
M16
G05
G00X3.6272Y-2.6961
M15
G01X3.6272Y-2.7551
M16
G05
G00X3.7728Y-2.6961
M15
G01X3.7728Y-2.7551
M16
G05
G00X3.9106Y-2.45
M15
G01X3.9894Y-2.45
M16
G05
G00X3.9244Y-2.6862
M15
G01X3.9756Y-2.6862
M16
G05
G00X4.1272Y-2.6961
M15
G01X4.1272Y-2.7551
M16
G05
G00X4.2728Y-2.6961
M15
G01X4.2728Y-2.7551
M16
G05
G00X4.4106Y-2.45
M15
G01X4.4894Y-2.45
M16
G05
G00X4.4244Y-2.6862
M15
G01X4.4756Y-2.6862
M16
G05
G00X4.6272Y-2.6961
M15
G01X4.6272Y-2.7551
M16
G05
G00X4.8728Y-2.6961
M15
G01X4.8728Y-2.7551
M16
G05
G00X5.0106Y-2.45
M15
G01X5.0894Y-2.45
M16
G05
G00X5.0244Y-2.6862
M15
G01X5.0756Y-2.6862
M16
G05
G00X5.2272Y-2.6961
M15
G01X5.2272Y-2.7551
M16
G05
G00X5.3728Y-2.6961
M15
G01X5.3728Y-2.7551
M16
G05
G00X5.5106Y-2.45
M15
G01X5.5894Y-2.45
M16
G05
G00X5.5244Y-2.6862
M15
G01X5.5756Y-2.6862
M16
G05
G00X5.7272Y-2.6961
M15
G01X5.7272Y-2.7551
M16
G05
G00X5.8728Y-2.6961
M15
G01X5.8728Y-2.7551
M16
G05
G00X6.0106Y-2.45
M15
G01X6.0894Y-2.45
M16
G05
G00X6.0244Y-2.6862
M15
G01X6.0756Y-2.6862
M16
G05
G00X6.2272Y-2.6961
M15
G01X6.2272Y-2.7551
M16
G05
G00X6.3728Y-2.6961
M15
G01X6.3728Y-2.7551
M16
G05
G00X6.5106Y-2.45
M15
G01X6.5894Y-2.45
M16
G05
G00X6.5244Y-2.6862
M15
G01X6.5756Y-2.6862
M16
G05
G00X6.7272Y-2.6961
M15
G01X6.7272Y-2.7551
M16
G05
G00X6.9728Y-2.6961
M15
G01X6.9728Y-2.7551
M16
G05
G00X7.1106Y-2.45
M15
G01X7.1894Y-2.45
M16
G05
G00X7.1244Y-2.6862
M15
G01X7.1756Y-2.6862
M16
G05
G00X7.3272Y-2.6961
M15
G01X7.3272Y-2.7551
M16
G05
G00X7.4728Y-2.6961
M15
G01X7.4728Y-2.7551
M16
G05
G00X7.6106Y-2.45
M15
G01X7.6894Y-2.45
M16
G05
G00X7.6244Y-2.6862
M15
G01X7.6756Y-2.6862
M16
G05
G00X7.8272Y-2.6961
M15
G01X7.8272Y-2.7551
M16
G05
G00X7.9728Y-2.6961
M15
G01X7.9728Y-2.7551
M16
G05
G00X8.1106Y-2.45
M15
G01X8.1894Y-2.45
M16
G05
G00X8.1244Y-2.6862
M15
G01X8.1756Y-2.6862
M16
G05
G00X8.3272Y-2.6961
M15
G01X8.3272Y-2.7551
M16
G05
G00X8.4728Y-2.6961
M15
G01X8.4728Y-2.7551
M16
G05
G00X8.6106Y-2.45
M15
G01X8.6894Y-2.45
M16
G05
G00X8.6244Y-2.6862
M15
G01X8.6756Y-2.6862
M16
G05
G00X8.8272Y-2.6961
M15
G01X8.8272Y-2.7551
M16
G05
G00X9.0728Y-2.6961
M15
G01X9.0728Y-2.7551
M16
G05
G00X9.2106Y-2.45
M15
G01X9.2894Y-2.45
M16
G05
G00X9.2244Y-2.6862
M15
G01X9.2756Y-2.6862
M16
G05
G00X9.4272Y-2.6961
M15
G01X9.4272Y-2.7551
M16
G05
G00X9.5728Y-2.6961
M15
G01X9.5728Y-2.7551
M16
G05
G00X9.7106Y-2.45
M15
G01X9.7894Y-2.45
M16
G05
G00X9.7244Y-2.6862
M15
G01X9.7756Y-2.6862
M16
G05
G00X9.9272Y-2.6961
M15
G01X9.9272Y-2.7551
M16
G05
G00X10.0728Y-2.6961
M15
G01X10.0728Y-2.7551
M16
G05
G00X10.2106Y-2.45
M15
G01X10.2894Y-2.45
M16
G05
G00X10.2244Y-2.6862
M15
G01X10.2756Y-2.6862
M16
G05
G00X10.4272Y-2.6961
M15
G01X10.4272Y-2.7551
M16
G05
T0
M30
