%TF.GenerationSoftware,KiCad,Pcbnew,(5.1.10-1-10_14)*%
%TF.CreationDate,2021-07-21T12:25:41-07:00*%
%TF.ProjectId,PASCAL_switchboard,50415343-414c-45f7-9377-69746368626f,rev?*%
%TF.SameCoordinates,Original*%
%TF.FileFunction,Soldermask,Top*%
%TF.FilePolarity,Negative*%
%FSLAX46Y46*%
G04 Gerber Fmt 4.6, Leading zero omitted, Abs format (unit mm)*
G04 Created by KiCad (PCBNEW (5.1.10-1-10_14)) date 2021-07-21 12:25:41*
%MOMM*%
%LPD*%
G01*
G04 APERTURE LIST*
%ADD10C,3.200000*%
%ADD11R,1.600000X1.600000*%
%ADD12C,1.600000*%
%ADD13C,4.000000*%
%ADD14O,2.000000X3.500000*%
%ADD15O,3.300000X2.000000*%
%ADD16R,4.000000X2.000000*%
G04 APERTURE END LIST*
D10*
%TO.C,REF\u002A\u002A*%
X271780000Y-45720000D03*
%TD*%
%TO.C,REF\u002A\u002A*%
X271780000Y-68580000D03*
%TD*%
%TO.C,REF\u002A\u002A*%
X76200000Y-45720000D03*
%TD*%
%TO.C,REF\u002A\u002A*%
X214630000Y-52070000D03*
%TD*%
%TO.C,REF\u002A\u002A*%
X76200000Y-68580000D03*
%TD*%
D11*
%TO.C,DB25*%
X196850000Y-48260000D03*
D12*
X194080000Y-48260000D03*
X191310000Y-48260000D03*
X188540000Y-48260000D03*
X185770000Y-48260000D03*
X183000000Y-48260000D03*
X180230000Y-48260000D03*
X177460000Y-48260000D03*
X174690000Y-48260000D03*
X171920000Y-48260000D03*
X169150000Y-48260000D03*
X166380000Y-48260000D03*
X163610000Y-48260000D03*
X195465000Y-45420000D03*
X192695000Y-45420000D03*
X189925000Y-45420000D03*
X187155000Y-45420000D03*
X184385000Y-45420000D03*
X181615000Y-45420000D03*
X178845000Y-45420000D03*
X176075000Y-45420000D03*
X173305000Y-45420000D03*
X170535000Y-45420000D03*
X167765000Y-45420000D03*
X164995000Y-45420000D03*
D13*
X203780000Y-46840000D03*
X156680000Y-46840000D03*
%TD*%
D12*
%TO.C,12V_1*%
X166370000Y-71230000D03*
D14*
X170870000Y-69230000D03*
X161870000Y-69230000D03*
D15*
X166370000Y-68230000D03*
D16*
X166370000Y-62230000D03*
%TD*%
D12*
%TO.C,12V_2*%
X153670000Y-71230000D03*
D14*
X158170000Y-69230000D03*
X149170000Y-69230000D03*
D15*
X153670000Y-68230000D03*
D16*
X153670000Y-62230000D03*
%TD*%
%TO.C,12V_3*%
X140970000Y-62230000D03*
D15*
X140970000Y-68230000D03*
D14*
X136470000Y-69230000D03*
X145470000Y-69230000D03*
D12*
X140970000Y-71230000D03*
%TD*%
%TO.C,12V_4*%
X128270000Y-71230000D03*
D14*
X132770000Y-69230000D03*
X123770000Y-69230000D03*
D15*
X128270000Y-68230000D03*
D16*
X128270000Y-62230000D03*
%TD*%
D12*
%TO.C,24V_1*%
X113030000Y-71230000D03*
D14*
X117530000Y-69230000D03*
X108530000Y-69230000D03*
D15*
X113030000Y-68230000D03*
D16*
X113030000Y-62230000D03*
%TD*%
%TO.C,24V_2*%
X100330000Y-62230000D03*
D15*
X100330000Y-68230000D03*
D14*
X95830000Y-69230000D03*
X104830000Y-69230000D03*
D12*
X100330000Y-71230000D03*
%TD*%
%TO.C,24V_3*%
X87630000Y-71230000D03*
D14*
X92130000Y-69230000D03*
X83130000Y-69230000D03*
D15*
X87630000Y-68230000D03*
D16*
X87630000Y-62230000D03*
%TD*%
%TO.C,5V_1*%
X219710000Y-62230000D03*
D15*
X219710000Y-68230000D03*
D14*
X215210000Y-69230000D03*
X224210000Y-69230000D03*
D12*
X219710000Y-71230000D03*
%TD*%
%TO.C,5V_2*%
X207010000Y-71230000D03*
D14*
X211510000Y-69230000D03*
X202510000Y-69230000D03*
D15*
X207010000Y-68230000D03*
D16*
X207010000Y-62230000D03*
%TD*%
%TO.C,5V_3*%
X194310000Y-62230000D03*
D15*
X194310000Y-68230000D03*
D14*
X189810000Y-69230000D03*
X198810000Y-69230000D03*
D12*
X194310000Y-71230000D03*
%TD*%
D16*
%TO.C,5V_4*%
X181610000Y-62230000D03*
D15*
X181610000Y-68230000D03*
D14*
X177110000Y-69230000D03*
X186110000Y-69230000D03*
D12*
X181610000Y-71230000D03*
%TD*%
D16*
%TO.C,Free_1*%
X234950000Y-62230000D03*
D15*
X234950000Y-68230000D03*
D14*
X230450000Y-69230000D03*
X239450000Y-69230000D03*
D12*
X234950000Y-71230000D03*
%TD*%
%TO.C,Free_2*%
X247650000Y-71230000D03*
D14*
X252150000Y-69230000D03*
X243150000Y-69230000D03*
D15*
X247650000Y-68230000D03*
D16*
X247650000Y-62230000D03*
%TD*%
%TO.C,Free_3*%
X260350000Y-62230000D03*
D15*
X260350000Y-68230000D03*
D14*
X255850000Y-69230000D03*
X264850000Y-69230000D03*
D12*
X260350000Y-71230000D03*
%TD*%
M02*
