%TF.GenerationSoftware,KiCad,Pcbnew,(5.1.10-1-10_14)*%
%TF.CreationDate,2021-07-21T12:25:41-07:00*%
%TF.ProjectId,PASCAL_switchboard,50415343-414c-45f7-9377-69746368626f,rev?*%
%TF.SameCoordinates,Original*%
%TF.FileFunction,Copper,L2,Bot*%
%TF.FilePolarity,Positive*%
%FSLAX46Y46*%
G04 Gerber Fmt 4.6, Leading zero omitted, Abs format (unit mm)*
G04 Created by KiCad (PCBNEW (5.1.10-1-10_14)) date 2021-07-21 12:25:41*
%MOMM*%
%LPD*%
G01*
G04 APERTURE LIST*
%TA.AperFunction,ComponentPad*%
%ADD10R,1.600000X1.600000*%
%TD*%
%TA.AperFunction,ComponentPad*%
%ADD11C,1.600000*%
%TD*%
%TA.AperFunction,ComponentPad*%
%ADD12C,4.000000*%
%TD*%
%TA.AperFunction,ComponentPad*%
%ADD13O,2.000000X3.500000*%
%TD*%
%TA.AperFunction,ComponentPad*%
%ADD14O,3.300000X2.000000*%
%TD*%
%TA.AperFunction,ComponentPad*%
%ADD15R,4.000000X2.000000*%
%TD*%
%TA.AperFunction,Conductor*%
%ADD16C,0.250000*%
%TD*%
G04 APERTURE END LIST*
D10*
%TO.P,DB25,1*%
%TO.N,Net-(5V_1-Pad1)*%
X196850000Y-48260000D03*
D11*
%TO.P,DB25,2*%
%TO.N,Net-(5V_2-Pad1)*%
X194080000Y-48260000D03*
%TO.P,DB25,3*%
%TO.N,Net-(5V_3-Pad1)*%
X191310000Y-48260000D03*
%TO.P,DB25,4*%
%TO.N,Net-(5V_4-Pad1)*%
X188540000Y-48260000D03*
%TO.P,DB25,5*%
%TO.N,Net-(5V_1-Pad2)*%
X185770000Y-48260000D03*
%TO.P,DB25,6*%
%TO.N,Net-(12V_1-Pad1)*%
X183000000Y-48260000D03*
%TO.P,DB25,7*%
%TO.N,Net-(12V_2-Pad1)*%
X180230000Y-48260000D03*
%TO.P,DB25,8*%
%TO.N,Net-(12V_3-Pad1)*%
X177460000Y-48260000D03*
%TO.P,DB25,9*%
%TO.N,Net-(12V_4-Pad1)*%
X174690000Y-48260000D03*
%TO.P,DB25,10*%
%TO.N,Net-(12V_1-Pad2)*%
X171920000Y-48260000D03*
%TO.P,DB25,11*%
%TO.N,Net-(24V_1-Pad1)*%
X169150000Y-48260000D03*
%TO.P,DB25,12*%
%TO.N,Net-(24V_2-Pad1)*%
X166380000Y-48260000D03*
%TO.P,DB25,13*%
%TO.N,Net-(24V_3-Pad1)*%
X163610000Y-48260000D03*
%TO.P,DB25,14*%
%TO.N,Net-(24V_1-Pad2)*%
X195465000Y-45420000D03*
%TO.P,DB25,15*%
%TO.N,Net-(DB25-Pad15)*%
X192695000Y-45420000D03*
%TO.P,DB25,16*%
%TO.N,Net-(DB25-Pad16)*%
X189925000Y-45420000D03*
%TO.P,DB25,17*%
%TO.N,Net-(DB25-Pad17)*%
X187155000Y-45420000D03*
%TO.P,DB25,18*%
%TO.N,Net-(DB25-Pad18)*%
X184385000Y-45420000D03*
%TO.P,DB25,19*%
%TO.N,Net-(DB25-Pad19)*%
X181615000Y-45420000D03*
%TO.P,DB25,20*%
%TO.N,Net-(DB25-Pad20)*%
X178845000Y-45420000D03*
%TO.P,DB25,21*%
%TO.N,Net-(DB25-Pad21)*%
X176075000Y-45420000D03*
%TO.P,DB25,22*%
%TO.N,Net-(DB25-Pad22)*%
X173305000Y-45420000D03*
%TO.P,DB25,23*%
%TO.N,Net-(DB25-Pad23)*%
X170535000Y-45420000D03*
%TO.P,DB25,24*%
%TO.N,Net-(DB25-Pad24)*%
X167765000Y-45420000D03*
%TO.P,DB25,25*%
%TO.N,Net-(DB25-Pad25)*%
X164995000Y-45420000D03*
D12*
%TO.P,DB25,0*%
%TO.N,Net-(DB25-Pad0)*%
X203780000Y-46840000D03*
X156680000Y-46840000D03*
%TD*%
D13*
%TO.P,12V_1,MP*%
%TO.N,N/C*%
X170870000Y-69230000D03*
X161870000Y-69230000D03*
D14*
%TO.P,12V_1,2*%
%TO.N,Net-(12V_1-Pad2)*%
X166370000Y-68230000D03*
D15*
%TO.P,12V_1,1*%
%TO.N,Net-(12V_1-Pad1)*%
X166370000Y-62230000D03*
%TD*%
D13*
%TO.P,12V_2,MP*%
%TO.N,N/C*%
X158170000Y-69230000D03*
X149170000Y-69230000D03*
D14*
%TO.P,12V_2,2*%
%TO.N,Net-(12V_1-Pad2)*%
X153670000Y-68230000D03*
D15*
%TO.P,12V_2,1*%
%TO.N,Net-(12V_2-Pad1)*%
X153670000Y-62230000D03*
%TD*%
%TO.P,12V_3,1*%
%TO.N,Net-(12V_3-Pad1)*%
X140970000Y-62230000D03*
D14*
%TO.P,12V_3,2*%
%TO.N,Net-(12V_1-Pad2)*%
X140970000Y-68230000D03*
D13*
%TO.P,12V_3,MP*%
%TO.N,N/C*%
X136470000Y-69230000D03*
X145470000Y-69230000D03*
%TD*%
%TO.P,12V_4,MP*%
%TO.N,N/C*%
X132770000Y-69230000D03*
X123770000Y-69230000D03*
D14*
%TO.P,12V_4,2*%
%TO.N,Net-(12V_1-Pad2)*%
X128270000Y-68230000D03*
D15*
%TO.P,12V_4,1*%
%TO.N,Net-(12V_4-Pad1)*%
X128270000Y-62230000D03*
%TD*%
D13*
%TO.P,24V_1,MP*%
%TO.N,N/C*%
X117530000Y-69230000D03*
X108530000Y-69230000D03*
D14*
%TO.P,24V_1,2*%
%TO.N,Net-(24V_1-Pad2)*%
X113030000Y-68230000D03*
D15*
%TO.P,24V_1,1*%
%TO.N,Net-(24V_1-Pad1)*%
X113030000Y-62230000D03*
%TD*%
%TO.P,24V_2,1*%
%TO.N,Net-(24V_2-Pad1)*%
X100330000Y-62230000D03*
D14*
%TO.P,24V_2,2*%
%TO.N,Net-(24V_1-Pad2)*%
X100330000Y-68230000D03*
D13*
%TO.P,24V_2,MP*%
%TO.N,N/C*%
X95830000Y-69230000D03*
X104830000Y-69230000D03*
%TD*%
%TO.P,24V_3,MP*%
%TO.N,N/C*%
X92130000Y-69230000D03*
X83130000Y-69230000D03*
D14*
%TO.P,24V_3,2*%
%TO.N,Net-(24V_1-Pad2)*%
X87630000Y-68230000D03*
D15*
%TO.P,24V_3,1*%
%TO.N,Net-(24V_3-Pad1)*%
X87630000Y-62230000D03*
%TD*%
%TO.P,5V_1,1*%
%TO.N,Net-(5V_1-Pad1)*%
X219710000Y-62230000D03*
D14*
%TO.P,5V_1,2*%
%TO.N,Net-(5V_1-Pad2)*%
X219710000Y-68230000D03*
D13*
%TO.P,5V_1,MP*%
%TO.N,N/C*%
X215210000Y-69230000D03*
X224210000Y-69230000D03*
%TD*%
%TO.P,5V_2,MP*%
%TO.N,N/C*%
X211510000Y-69230000D03*
X202510000Y-69230000D03*
D14*
%TO.P,5V_2,2*%
%TO.N,Net-(5V_1-Pad2)*%
X207010000Y-68230000D03*
D15*
%TO.P,5V_2,1*%
%TO.N,Net-(5V_2-Pad1)*%
X207010000Y-62230000D03*
%TD*%
%TO.P,5V_3,1*%
%TO.N,Net-(5V_3-Pad1)*%
X194310000Y-62230000D03*
D14*
%TO.P,5V_3,2*%
%TO.N,Net-(5V_1-Pad2)*%
X194310000Y-68230000D03*
D13*
%TO.P,5V_3,MP*%
%TO.N,N/C*%
X189810000Y-69230000D03*
X198810000Y-69230000D03*
%TD*%
D15*
%TO.P,5V_4,1*%
%TO.N,Net-(5V_4-Pad1)*%
X181610000Y-62230000D03*
D14*
%TO.P,5V_4,2*%
%TO.N,Net-(5V_1-Pad2)*%
X181610000Y-68230000D03*
D13*
%TO.P,5V_4,MP*%
%TO.N,N/C*%
X177110000Y-69230000D03*
X186110000Y-69230000D03*
%TD*%
D15*
%TO.P,Free_1,1*%
%TO.N,Net-(DB25-Pad15)*%
X234950000Y-62230000D03*
D14*
%TO.P,Free_1,2*%
%TO.N,Net-(DB25-Pad18)*%
X234950000Y-68230000D03*
D13*
%TO.P,Free_1,MP*%
%TO.N,N/C*%
X230450000Y-69230000D03*
X239450000Y-69230000D03*
%TD*%
%TO.P,Free_2,MP*%
%TO.N,N/C*%
X252150000Y-69230000D03*
X243150000Y-69230000D03*
D14*
%TO.P,Free_2,2*%
%TO.N,Net-(DB25-Pad18)*%
X247650000Y-68230000D03*
D15*
%TO.P,Free_2,1*%
%TO.N,Net-(DB25-Pad16)*%
X247650000Y-62230000D03*
%TD*%
%TO.P,Free_3,1*%
%TO.N,Net-(DB25-Pad17)*%
X260350000Y-62230000D03*
D14*
%TO.P,Free_3,2*%
%TO.N,Net-(DB25-Pad18)*%
X260350000Y-68230000D03*
D13*
%TO.P,Free_3,MP*%
%TO.N,N/C*%
X255850000Y-69230000D03*
X264850000Y-69230000D03*
%TD*%
D16*
%TO.N,Net-(12V_1-Pad2)*%
X139894990Y-67154990D02*
X140970000Y-68230000D01*
X129345010Y-67154990D02*
X139894990Y-67154990D01*
X128270000Y-68230000D02*
X129345010Y-67154990D01*
X142045010Y-67154990D02*
X140970000Y-68230000D01*
X152594990Y-67154990D02*
X142045010Y-67154990D01*
X153670000Y-68230000D02*
X152594990Y-67154990D01*
X154745010Y-67154990D02*
X153670000Y-68230000D01*
X165294990Y-67154990D02*
X154745010Y-67154990D01*
X166370000Y-68230000D02*
X165294990Y-67154990D01*
X171920000Y-62680000D02*
X171920000Y-48260000D01*
X166370000Y-68230000D02*
X171920000Y-62680000D01*
%TO.N,Net-(24V_1-Pad2)*%
X99254990Y-67154990D02*
X100330000Y-68230000D01*
X88705010Y-67154990D02*
X99254990Y-67154990D01*
X87630000Y-68230000D02*
X88705010Y-67154990D01*
X111954990Y-67154990D02*
X113030000Y-68230000D01*
X100330000Y-68230000D02*
X101405010Y-67154990D01*
X101405010Y-67154990D02*
X111954990Y-67154990D01*
X195465000Y-45420000D02*
X193225000Y-43180000D01*
X138080000Y-43180000D02*
X113030000Y-68230000D01*
X193225000Y-43180000D02*
X138080000Y-43180000D01*
%TO.N,Net-(5V_1-Pad2)*%
X193234990Y-67154990D02*
X194310000Y-68230000D01*
X181610000Y-68230000D02*
X182685010Y-67154990D01*
X195385010Y-67154990D02*
X205934990Y-67154990D01*
X205934990Y-67154990D02*
X207010000Y-68230000D01*
X194310000Y-68230000D02*
X195385010Y-67154990D01*
X218634990Y-67154990D02*
X219710000Y-68230000D01*
X208085010Y-67154990D02*
X218634990Y-67154990D01*
X207010000Y-68230000D02*
X208085010Y-67154990D01*
X219710000Y-68230000D02*
X219710000Y-67310000D01*
X182685010Y-67154990D02*
X193234990Y-67154990D01*
X185770000Y-64070000D02*
X185770000Y-48260000D01*
X181610000Y-68230000D02*
X185770000Y-64070000D01*
%TO.N,Net-(DB25-Pad18)*%
X246574990Y-67154990D02*
X247650000Y-68230000D01*
X236025010Y-67154990D02*
X246574990Y-67154990D01*
X234950000Y-68230000D02*
X236025010Y-67154990D01*
X187414999Y-48800001D02*
X197034998Y-58420000D01*
X187414999Y-47318629D02*
X187414999Y-48800001D01*
X185516370Y-45420000D02*
X187414999Y-47318629D01*
X184385000Y-45420000D02*
X185516370Y-45420000D01*
X225140000Y-58420000D02*
X234950000Y-68230000D01*
X197034998Y-58420000D02*
X225140000Y-58420000D01*
X259274990Y-67154990D02*
X260350000Y-68230000D01*
X248725010Y-67154990D02*
X259274990Y-67154990D01*
X247650000Y-68230000D02*
X248725010Y-67154990D01*
%TO.N,Net-(DB25-Pad0)*%
X193703589Y-44294999D02*
X194310000Y-44901410D01*
X186614999Y-44294999D02*
X193703589Y-44294999D01*
X185420000Y-44450000D02*
X186459998Y-44450000D01*
X194310000Y-45930002D02*
X195219998Y-46840000D01*
X185264999Y-44294999D02*
X185420000Y-44450000D01*
X186459998Y-44450000D02*
X186614999Y-44294999D01*
X180919998Y-44450000D02*
X181074999Y-44294999D01*
X180340000Y-44450000D02*
X180919998Y-44450000D01*
X180184999Y-44294999D02*
X180340000Y-44450000D01*
X169994999Y-44294999D02*
X180184999Y-44294999D01*
X169409999Y-44879999D02*
X169994999Y-44294999D01*
X169409999Y-45440003D02*
X169409999Y-44879999D01*
X195219998Y-46840000D02*
X203780000Y-46840000D01*
X168010002Y-46840000D02*
X169409999Y-45440003D01*
X194310000Y-44901410D02*
X194310000Y-45930002D01*
X181074999Y-44294999D02*
X185264999Y-44294999D01*
X156680000Y-46840000D02*
X168010002Y-46840000D01*
%TD*%
M02*
