ISO-10303-21;
HEADER;
/* Generated by software containing ST-Developer
 * from STEP Tools, Inc. (www.steptools.com) 
 */

FILE_DESCRIPTION(
/* description */ (''),
/* implementation_level */ '2;1');

FILE_NAME(
/* name */ 'spincoater_chuck_10mm_v0.step',
/* time_stamp */ '2026-08-07T17:51:25-07:00',
/* author */ (''),
/* organization */ (''),
/* preprocessor_version */ 'ST-DEVELOPER v20.1',
/* originating_system */ 'Autodesk Translation Framework v15.8.0.0',
/* authorisation */ '');

FILE_SCHEMA (('AUTOMOTIVE_DESIGN { 1 0 10303 214 3 1 1 }'));
ENDSEC;

DATA;
#10=MECHANICAL_DESIGN_GEOMETRIC_PRESENTATION_REPRESENTATION('',(#13),#403);
#11=SHAPE_REPRESENTATION_RELATIONSHIP('SRR','None',#410,#12);
#12=ADVANCED_BREP_SHAPE_REPRESENTATION('',(#14),#402);
#13=STYLED_ITEM('',(#419),#14);
#14=MANIFOLD_SOLID_BREP('Body1',#236);
#15=FACE_BOUND('',#48,.T.);
#16=FACE_BOUND('',#50,.T.);
#17=FACE_BOUND('',#58,.T.);
#18=FACE_BOUND('',#62,.T.);
#19=PLANE('',#255);
#20=PLANE('',#257);
#21=PLANE('',#259);
#22=PLANE('',#260);
#23=PLANE('',#261);
#24=PLANE('',#262);
#25=PLANE('',#263);
#26=PLANE('',#264);
#27=PLANE('',#265);
#28=PLANE('',#270);
#29=CYLINDRICAL_SURFACE('',#253,14.75);
#30=CYLINDRICAL_SURFACE('',#268,15.);
#31=FACE_OUTER_BOUND('',#45,.T.);
#32=FACE_OUTER_BOUND('',#46,.T.);
#33=FACE_OUTER_BOUND('',#47,.T.);
#34=FACE_OUTER_BOUND('',#49,.T.);
#35=FACE_OUTER_BOUND('',#51,.T.);
#36=FACE_OUTER_BOUND('',#52,.T.);
#37=FACE_OUTER_BOUND('',#53,.T.);
#38=FACE_OUTER_BOUND('',#54,.T.);
#39=FACE_OUTER_BOUND('',#55,.T.);
#40=FACE_OUTER_BOUND('',#56,.T.);
#41=FACE_OUTER_BOUND('',#57,.T.);
#42=FACE_OUTER_BOUND('',#59,.T.);
#43=FACE_OUTER_BOUND('',#60,.T.);
#44=FACE_OUTER_BOUND('',#61,.T.);
#45=EDGE_LOOP('',(#162,#163,#164,#165));
#46=EDGE_LOOP('',(#166,#167,#168,#169));
#47=EDGE_LOOP('',(#170));
#48=EDGE_LOOP('',(#171));
#49=EDGE_LOOP('',(#172));
#50=EDGE_LOOP('',(#173));
#51=EDGE_LOOP('',(#174,#175,#176,#177));
#52=EDGE_LOOP('',(#178,#179,#180,#181));
#53=EDGE_LOOP('',(#182,#183,#184,#185));
#54=EDGE_LOOP('',(#186,#187,#188,#189));
#55=EDGE_LOOP('',(#190,#191,#192,#193));
#56=EDGE_LOOP('',(#194,#195,#196,#197));
#57=EDGE_LOOP('',(#198));
#58=EDGE_LOOP('',(#199,#200,#201,#202,#203,#204));
#59=EDGE_LOOP('',(#205,#206,#207,#208));
#60=EDGE_LOOP('',(#209,#210,#211,#212));
#61=EDGE_LOOP('',(#213));
#62=EDGE_LOOP('',(#214,#215,#216,#217,#218,#219));
#63=LINE('',#342,#85);
#64=LINE('',#347,#86);
#65=LINE('',#357,#87);
#66=LINE('',#359,#88);
#67=LINE('',#361,#89);
#68=LINE('',#362,#90);
#69=LINE('',#365,#91);
#70=LINE('',#367,#92);
#71=LINE('',#368,#93);
#72=LINE('',#371,#94);
#73=LINE('',#373,#95);
#74=LINE('',#374,#96);
#75=LINE('',#377,#97);
#76=LINE('',#379,#98);
#77=LINE('',#380,#99);
#78=LINE('',#383,#100);
#79=LINE('',#385,#101);
#80=LINE('',#386,#102);
#81=LINE('',#388,#103);
#82=LINE('',#389,#104);
#83=LINE('',#394,#105);
#84=LINE('',#398,#106);
#85=VECTOR('',#277,14.5);
#86=VECTOR('',#284,14.75);
#87=VECTOR('',#295,10.);
#88=VECTOR('',#296,10.);
#89=VECTOR('',#297,10.);
#90=VECTOR('',#298,10.);
#91=VECTOR('',#301,10.);
#92=VECTOR('',#302,10.);
#93=VECTOR('',#303,10.);
#94=VECTOR('',#306,10.);
#95=VECTOR('',#307,10.);
#96=VECTOR('',#308,10.);
#97=VECTOR('',#311,10.);
#98=VECTOR('',#312,10.);
#99=VECTOR('',#313,10.);
#100=VECTOR('',#316,10.);
#101=VECTOR('',#317,10.);
#102=VECTOR('',#318,10.);
#103=VECTOR('',#321,10.);
#104=VECTOR('',#322,10.);
#105=VECTOR('',#329,6.50000009685755);
#106=VECTOR('',#334,15.);
#107=CIRCLE('',#251,14.25);
#108=CIRCLE('',#252,14.75);
#109=CIRCLE('',#254,14.75);
#110=CIRCLE('',#256,6.50000009685755);
#111=CIRCLE('',#258,15.);
#112=CIRCLE('',#266,4.89230494227081);
#113=CIRCLE('',#269,15.);
#114=VERTEX_POINT('',#339);
#115=VERTEX_POINT('',#341);
#116=VERTEX_POINT('',#345);
#117=VERTEX_POINT('',#349);
#118=VERTEX_POINT('',#352);
#119=VERTEX_POINT('',#355);
#120=VERTEX_POINT('',#356);
#121=VERTEX_POINT('',#358);
#122=VERTEX_POINT('',#360);
#123=VERTEX_POINT('',#364);
#124=VERTEX_POINT('',#366);
#125=VERTEX_POINT('',#370);
#126=VERTEX_POINT('',#372);
#127=VERTEX_POINT('',#376);
#128=VERTEX_POINT('',#378);
#129=VERTEX_POINT('',#382);
#130=VERTEX_POINT('',#384);
#131=VERTEX_POINT('',#391);
#132=VERTEX_POINT('',#396);
#133=EDGE_CURVE('',#114,#114,#107,.T.);
#134=EDGE_CURVE('',#114,#115,#63,.T.);
#135=EDGE_CURVE('',#115,#115,#108,.T.);
#136=EDGE_CURVE('',#116,#116,#109,.T.);
#137=EDGE_CURVE('',#116,#115,#64,.T.);
#138=EDGE_CURVE('',#117,#117,#110,.T.);
#139=EDGE_CURVE('',#118,#118,#111,.T.);
#140=EDGE_CURVE('',#119,#120,#65,.T.);
#141=EDGE_CURVE('',#119,#121,#66,.T.);
#142=EDGE_CURVE('',#122,#121,#67,.T.);
#143=EDGE_CURVE('',#120,#122,#68,.T.);
#144=EDGE_CURVE('',#123,#119,#69,.T.);
#145=EDGE_CURVE('',#123,#124,#70,.T.);
#146=EDGE_CURVE('',#121,#124,#71,.T.);
#147=EDGE_CURVE('',#125,#123,#72,.T.);
#148=EDGE_CURVE('',#125,#126,#73,.T.);
#149=EDGE_CURVE('',#124,#126,#74,.T.);
#150=EDGE_CURVE('',#127,#125,#75,.T.);
#151=EDGE_CURVE('',#127,#128,#76,.T.);
#152=EDGE_CURVE('',#126,#128,#77,.T.);
#153=EDGE_CURVE('',#120,#129,#78,.T.);
#154=EDGE_CURVE('',#130,#122,#79,.T.);
#155=EDGE_CURVE('',#129,#130,#80,.T.);
#156=EDGE_CURVE('',#129,#127,#81,.T.);
#157=EDGE_CURVE('',#128,#130,#82,.T.);
#158=EDGE_CURVE('',#131,#131,#112,.T.);
#159=EDGE_CURVE('',#117,#131,#83,.T.);
#160=EDGE_CURVE('',#132,#132,#113,.T.);
#161=EDGE_CURVE('',#132,#118,#84,.T.);
#162=ORIENTED_EDGE('',*,*,#133,.T.);
#163=ORIENTED_EDGE('',*,*,#134,.T.);
#164=ORIENTED_EDGE('',*,*,#135,.T.);
#165=ORIENTED_EDGE('',*,*,#134,.F.);
#166=ORIENTED_EDGE('',*,*,#136,.F.);
#167=ORIENTED_EDGE('',*,*,#137,.T.);
#168=ORIENTED_EDGE('',*,*,#135,.F.);
#169=ORIENTED_EDGE('',*,*,#137,.F.);
#170=ORIENTED_EDGE('',*,*,#133,.F.);
#171=ORIENTED_EDGE('',*,*,#138,.F.);
#172=ORIENTED_EDGE('',*,*,#139,.T.);
#173=ORIENTED_EDGE('',*,*,#136,.T.);
#174=ORIENTED_EDGE('',*,*,#140,.F.);
#175=ORIENTED_EDGE('',*,*,#141,.T.);
#176=ORIENTED_EDGE('',*,*,#142,.F.);
#177=ORIENTED_EDGE('',*,*,#143,.F.);
#178=ORIENTED_EDGE('',*,*,#144,.F.);
#179=ORIENTED_EDGE('',*,*,#145,.T.);
#180=ORIENTED_EDGE('',*,*,#146,.F.);
#181=ORIENTED_EDGE('',*,*,#141,.F.);
#182=ORIENTED_EDGE('',*,*,#147,.F.);
#183=ORIENTED_EDGE('',*,*,#148,.T.);
#184=ORIENTED_EDGE('',*,*,#149,.F.);
#185=ORIENTED_EDGE('',*,*,#145,.F.);
#186=ORIENTED_EDGE('',*,*,#150,.F.);
#187=ORIENTED_EDGE('',*,*,#151,.T.);
#188=ORIENTED_EDGE('',*,*,#152,.F.);
#189=ORIENTED_EDGE('',*,*,#148,.F.);
#190=ORIENTED_EDGE('',*,*,#153,.F.);
#191=ORIENTED_EDGE('',*,*,#143,.T.);
#192=ORIENTED_EDGE('',*,*,#154,.F.);
#193=ORIENTED_EDGE('',*,*,#155,.F.);
#194=ORIENTED_EDGE('',*,*,#156,.F.);
#195=ORIENTED_EDGE('',*,*,#155,.T.);
#196=ORIENTED_EDGE('',*,*,#157,.F.);
#197=ORIENTED_EDGE('',*,*,#151,.F.);
#198=ORIENTED_EDGE('',*,*,#158,.F.);
#199=ORIENTED_EDGE('',*,*,#157,.T.);
#200=ORIENTED_EDGE('',*,*,#154,.T.);
#201=ORIENTED_EDGE('',*,*,#142,.T.);
#202=ORIENTED_EDGE('',*,*,#146,.T.);
#203=ORIENTED_EDGE('',*,*,#149,.T.);
#204=ORIENTED_EDGE('',*,*,#152,.T.);
#205=ORIENTED_EDGE('',*,*,#138,.T.);
#206=ORIENTED_EDGE('',*,*,#159,.T.);
#207=ORIENTED_EDGE('',*,*,#158,.T.);
#208=ORIENTED_EDGE('',*,*,#159,.F.);
#209=ORIENTED_EDGE('',*,*,#160,.F.);
#210=ORIENTED_EDGE('',*,*,#161,.T.);
#211=ORIENTED_EDGE('',*,*,#139,.F.);
#212=ORIENTED_EDGE('',*,*,#161,.F.);
#213=ORIENTED_EDGE('',*,*,#160,.T.);
#214=ORIENTED_EDGE('',*,*,#156,.T.);
#215=ORIENTED_EDGE('',*,*,#150,.T.);
#216=ORIENTED_EDGE('',*,*,#147,.T.);
#217=ORIENTED_EDGE('',*,*,#144,.T.);
#218=ORIENTED_EDGE('',*,*,#140,.T.);
#219=ORIENTED_EDGE('',*,*,#153,.T.);
#220=CONICAL_SURFACE('',#250,14.5,1.0471975511966);
#221=CONICAL_SURFACE('',#267,6.50000009685755,0.261799387799149);
#222=ADVANCED_FACE('',(#31),#220,.F.);
#223=ADVANCED_FACE('',(#32),#29,.F.);
#224=ADVANCED_FACE('',(#33,#15),#19,.T.);
#225=ADVANCED_FACE('',(#34,#16),#20,.T.);
#226=ADVANCED_FACE('',(#35),#21,.F.);
#227=ADVANCED_FACE('',(#36),#22,.F.);
#228=ADVANCED_FACE('',(#37),#23,.F.);
#229=ADVANCED_FACE('',(#38),#24,.F.);
#230=ADVANCED_FACE('',(#39),#25,.F.);
#231=ADVANCED_FACE('',(#40),#26,.F.);
#232=ADVANCED_FACE('',(#41,#17),#27,.T.);
#233=ADVANCED_FACE('',(#42),#221,.T.);
#234=ADVANCED_FACE('',(#43),#30,.T.);
#235=ADVANCED_FACE('',(#44,#18),#28,.T.);
#236=CLOSED_SHELL('',(#222,#223,#224,#225,#226,#227,#228,#229,#230,#231,
#232,#233,#234,#235));
#237=DERIVED_UNIT_ELEMENT(#239,1.);
#238=DERIVED_UNIT_ELEMENT(#405,-3.);
#239=(
MASS_UNIT()
NAMED_UNIT(*)
SI_UNIT(.KILO.,.GRAM.)
);
#240=DERIVED_UNIT((#237,#238));
#241=MEASURE_REPRESENTATION_ITEM('density measure',
POSITIVE_RATIO_MEASURE(7850.),#240);
#242=PROPERTY_DEFINITION_REPRESENTATION(#247,#244);
#243=PROPERTY_DEFINITION_REPRESENTATION(#248,#245);
#244=REPRESENTATION('material name',(#246),#402);
#245=REPRESENTATION('density',(#241),#402);
#246=DESCRIPTIVE_REPRESENTATION_ITEM('Steel','Steel');
#247=PROPERTY_DEFINITION('material property','material name',#412);
#248=PROPERTY_DEFINITION('material property','density of part',#412);
#249=AXIS2_PLACEMENT_3D('',#337,#271,#272);
#250=AXIS2_PLACEMENT_3D('',#338,#273,#274);
#251=AXIS2_PLACEMENT_3D('',#340,#275,#276);
#252=AXIS2_PLACEMENT_3D('',#343,#278,#279);
#253=AXIS2_PLACEMENT_3D('',#344,#280,#281);
#254=AXIS2_PLACEMENT_3D('',#346,#282,#283);
#255=AXIS2_PLACEMENT_3D('',#348,#285,#286);
#256=AXIS2_PLACEMENT_3D('',#350,#287,#288);
#257=AXIS2_PLACEMENT_3D('',#351,#289,#290);
#258=AXIS2_PLACEMENT_3D('',#353,#291,#292);
#259=AXIS2_PLACEMENT_3D('',#354,#293,#294);
#260=AXIS2_PLACEMENT_3D('',#363,#299,#300);
#261=AXIS2_PLACEMENT_3D('',#369,#304,#305);
#262=AXIS2_PLACEMENT_3D('',#375,#309,#310);
#263=AXIS2_PLACEMENT_3D('',#381,#314,#315);
#264=AXIS2_PLACEMENT_3D('',#387,#319,#320);
#265=AXIS2_PLACEMENT_3D('',#390,#323,#324);
#266=AXIS2_PLACEMENT_3D('',#392,#325,#326);
#267=AXIS2_PLACEMENT_3D('',#393,#327,#328);
#268=AXIS2_PLACEMENT_3D('',#395,#330,#331);
#269=AXIS2_PLACEMENT_3D('',#397,#332,#333);
#270=AXIS2_PLACEMENT_3D('',#399,#335,#336);
#271=DIRECTION('axis',(0.,0.,1.));
#272=DIRECTION('refdir',(1.,0.,0.));
#273=DIRECTION('center_axis',(0.,0.,-1.));
#274=DIRECTION('ref_axis',(1.,0.,0.));
#275=DIRECTION('center_axis',(0.,0.,1.));
#276=DIRECTION('ref_axis',(1.,0.,0.));
#277=DIRECTION('',(-0.866025403784438,-1.06057523872491E-16,-0.5));
#278=DIRECTION('center_axis',(0.,0.,-1.));
#279=DIRECTION('ref_axis',(1.,0.,0.));
#280=DIRECTION('center_axis',(0.,0.,-1.));
#281=DIRECTION('ref_axis',(1.,0.,0.));
#282=DIRECTION('center_axis',(0.,0.,1.));
#283=DIRECTION('ref_axis',(1.,0.,0.));
#284=DIRECTION('',(0.,0.,1.));
#285=DIRECTION('center_axis',(0.,0.,-1.));
#286=DIRECTION('ref_axis',(-1.,0.,0.));
#287=DIRECTION('center_axis',(0.,0.,-1.));
#288=DIRECTION('ref_axis',(1.,0.,0.));
#289=DIRECTION('center_axis',(0.,0.,-1.));
#290=DIRECTION('ref_axis',(1.,0.,0.));
#291=DIRECTION('center_axis',(0.,0.,-1.));
#292=DIRECTION('ref_axis',(1.,0.,0.));
#293=DIRECTION('center_axis',(-0.493857888086827,0.869542630567599,0.));
#294=DIRECTION('ref_axis',(0.869542630567599,0.493857888086827,0.));
#295=DIRECTION('',(0.869542630567599,0.493857888086827,0.));
#296=DIRECTION('',(0.,0.,-1.));
#297=DIRECTION('',(-0.869542630567599,-0.493857888086827,0.));
#298=DIRECTION('',(0.,0.,-1.));
#299=DIRECTION('center_axis',(-0.999974951788501,0.00707783834127493,0.));
#300=DIRECTION('ref_axis',(0.00707783834127493,0.999974951788501,0.));
#301=DIRECTION('',(0.00707783834127493,0.999974951788501,0.));
#302=DIRECTION('',(0.,0.,-1.));
#303=DIRECTION('',(-0.00707783834127493,-0.999974951788501,0.));
#304=DIRECTION('center_axis',(-0.506117063701674,-0.862464792226324,0.));
#305=DIRECTION('ref_axis',(-0.862464792226324,0.506117063701674,0.));
#306=DIRECTION('',(-0.862464792226324,0.506117063701674,0.));
#307=DIRECTION('',(0.,0.,-1.));
#308=DIRECTION('',(0.862464792226323,-0.506117063701674,0.));
#309=DIRECTION('center_axis',(0.493857888086827,-0.869542630567599,0.));
#310=DIRECTION('ref_axis',(-0.869542630567599,-0.493857888086827,0.));
#311=DIRECTION('',(-0.869542630567599,-0.493857888086827,0.));
#312=DIRECTION('',(0.,0.,-1.));
#313=DIRECTION('',(0.869542630567599,0.493857888086827,0.));
#314=DIRECTION('center_axis',(0.506117063701674,0.862464792226324,0.));
#315=DIRECTION('ref_axis',(0.862464792226324,-0.506117063701674,0.));
#316=DIRECTION('',(0.862464792226324,-0.506117063701674,0.));
#317=DIRECTION('',(-0.862464792226324,0.506117063701674,0.));
#318=DIRECTION('',(0.,0.,-1.));
#319=DIRECTION('center_axis',(0.999974951788501,-0.00707783834127541,0.));
#320=DIRECTION('ref_axis',(-0.00707783834127541,-0.999974951788501,0.));
#321=DIRECTION('',(-0.00707783834127541,-0.999974951788501,0.));
#322=DIRECTION('',(0.00707783834127541,0.999974951788501,0.));
#323=DIRECTION('center_axis',(0.,0.,-1.));
#324=DIRECTION('ref_axis',(-1.,0.,0.));
#325=DIRECTION('center_axis',(0.,0.,1.));
#326=DIRECTION('ref_axis',(1.,0.,0.));
#327=DIRECTION('center_axis',(0.,0.,1.));
#328=DIRECTION('ref_axis',(1.,0.,0.));
#329=DIRECTION('',(0.258819045102521,3.16961915143176E-17,-0.965925826289068));
#330=DIRECTION('center_axis',(0.,0.,1.));
#331=DIRECTION('ref_axis',(1.,0.,0.));
#332=DIRECTION('center_axis',(0.,0.,1.));
#333=DIRECTION('ref_axis',(1.,0.,0.));
#334=DIRECTION('',(0.,0.,-1.));
#335=DIRECTION('center_axis',(0.,0.,1.));
#336=DIRECTION('ref_axis',(1.,0.,0.));
#337=CARTESIAN_POINT('',(0.,0.,0.));
#338=CARTESIAN_POINT('Origin',(0.,0.,5.85566243270259));
#339=CARTESIAN_POINT('',(-14.25,-1.74512168878498E-15,6.));
#340=CARTESIAN_POINT('Origin',(0.,0.,6.));
#341=CARTESIAN_POINT('',(-14.75,1.80635402874235E-15,5.71132486540519));
#342=CARTESIAN_POINT('',(-14.5,-1.77573785876366E-15,5.85566243270259));
#343=CARTESIAN_POINT('Origin',(0.,0.,5.71132486540519));
#344=CARTESIAN_POINT('Origin',(0.,0.,6.));
#345=CARTESIAN_POINT('',(-14.75,1.80635402874235E-15,5.));
#346=CARTESIAN_POINT('Origin',(0.,0.,5.));
#347=CARTESIAN_POINT('',(-14.75,1.80635402874235E-15,6.));
#348=CARTESIAN_POINT('Origin',(15.,0.,6.));
#349=CARTESIAN_POINT('',(-6.50000009685755,-7.96020431307408E-16,6.));
#350=CARTESIAN_POINT('Origin',(0.,0.,6.));
#351=CARTESIAN_POINT('Origin',(0.,0.,5.));
#352=CARTESIAN_POINT('',(-15.,1.83697019872103E-15,5.));
#353=CARTESIAN_POINT('Origin',(0.,0.,5.));
#354=CARTESIAN_POINT('Origin',(-3.98355423966754,2.337654583757,8.));
#355=CARTESIAN_POINT('',(-3.98355423966754,2.337654583757,8.));
#356=CARTESIAN_POINT('',(0.0326911349729253,4.61868646078379,8.));
#357=CARTESIAN_POINT('',(-1.46728412325859,3.76677352728085,8.));
#358=CARTESIAN_POINT('',(-3.98355423966754,2.337654583757,0.));
#359=CARTESIAN_POINT('',(-3.98355423966754,2.337654583757,8.));
#360=CARTESIAN_POINT('',(0.0326911349729253,4.61868646078379,0.));
#361=CARTESIAN_POINT('',(0.481907609330668,4.87381955204501,0.));
#362=CARTESIAN_POINT('',(0.0326911349729253,4.61868646078379,8.));
#363=CARTESIAN_POINT('Origin',(-4.01624537464047,-2.2810318770268,8.));
#364=CARTESIAN_POINT('',(-4.01624537464047,-2.2810318770268,8.));
#365=CARTESIAN_POINT('',(-4.00797239930606,-1.11220493972268,8.));
#366=CARTESIAN_POINT('',(-4.01624537464047,-2.2810318770268,0.));
#367=CARTESIAN_POINT('',(-4.01624537464047,-2.2810318770268,8.));
#368=CARTESIAN_POINT('',(-4.00790977955916,-1.10335786306232,0.));
#369=CARTESIAN_POINT('Origin',(-0.032691134972927,-4.61868646078379,8.));
#370=CARTESIAN_POINT('',(-0.0326911349729267,-4.61868646078379,8.));
#371=CARTESIAN_POINT('',(0.459111340770179,-4.90728911121987,8.));
#372=CARTESIAN_POINT('',(-0.0326911349729267,-4.61868646078379,0.));
#373=CARTESIAN_POINT('',(-0.0326911349729267,-4.61868646078379,8.));
#374=CARTESIAN_POINT('',(1.3889182740812,-5.452924317594,0.));
#375=CARTESIAN_POINT('Origin',(3.98355423966754,-2.337654583757,8.));
#376=CARTESIAN_POINT('',(3.98355423966754,-2.337654583757,8.));
#377=CARTESIAN_POINT('',(4.49170166875626,-2.04905157874654,8.));
#378=CARTESIAN_POINT('',(3.98355423966754,-2.337654583757,0.));
#379=CARTESIAN_POINT('',(3.98355423966754,-2.337654583757,8.));
#380=CARTESIAN_POINT('',(5.4368321883415,-1.51226344903278,0.));
#381=CARTESIAN_POINT('Origin',(2.02445301515565,3.44986811193405,8.));
#382=CARTESIAN_POINT('',(4.01624537464047,2.28103187702679,8.));
#383=CARTESIAN_POINT('',(3.51215167064117,2.57684734404435,8.));
#384=CARTESIAN_POINT('',(4.01624537464047,2.28103187702679,0.));
#385=CARTESIAN_POINT('',(4.44195860395219,2.03121213767022,-5.55111512312578E-16));
#386=CARTESIAN_POINT('',(4.01624537464047,2.28103187702679,8.));
#387=CARTESIAN_POINT('Origin',(4.01624537464047,2.28103187702679,8.));
#388=CARTESIAN_POINT('',(4.00000004053285,-0.0141501273884223,8.));
#389=CARTESIAN_POINT('',(4.00006266027976,-0.00530305072805525,0.));
#390=CARTESIAN_POINT('Origin',(6.50000009685755,0.,0.));
#391=CARTESIAN_POINT('',(-4.89230494227081,-5.99134558800473E-16,0.));
#392=CARTESIAN_POINT('Origin',(0.,0.,0.));
#393=CARTESIAN_POINT('Origin',(0.,0.,6.));
#394=CARTESIAN_POINT('',(-6.50000009685755,-7.96020431307408E-16,6.));
#395=CARTESIAN_POINT('Origin',(0.,0.,6.5));
#396=CARTESIAN_POINT('',(-15.,-1.83697019872103E-15,8.));
#397=CARTESIAN_POINT('Origin',(0.,0.,8.));
#398=CARTESIAN_POINT('',(-15.,-1.83697019872103E-15,6.5));
#399=CARTESIAN_POINT('Origin',(4.,0.,8.));
#400=UNCERTAINTY_MEASURE_WITH_UNIT(LENGTH_MEASURE(0.01),#404,
'DISTANCE_ACCURACY_VALUE',
'Maximum model space distance between geometric entities at asserted c
onnectivities');
#401=UNCERTAINTY_MEASURE_WITH_UNIT(LENGTH_MEASURE(0.01),#404,
'DISTANCE_ACCURACY_VALUE',
'Maximum model space distance between geometric entities at asserted c
onnectivities');
#402=(
GEOMETRIC_REPRESENTATION_CONTEXT(3)
GLOBAL_UNCERTAINTY_ASSIGNED_CONTEXT((#400))
GLOBAL_UNIT_ASSIGNED_CONTEXT((#404,#406,#407))
REPRESENTATION_CONTEXT('','3D')
);
#403=(
GEOMETRIC_REPRESENTATION_CONTEXT(3)
GLOBAL_UNCERTAINTY_ASSIGNED_CONTEXT((#401))
GLOBAL_UNIT_ASSIGNED_CONTEXT((#404,#406,#407))
REPRESENTATION_CONTEXT('','3D')
);
#404=(
LENGTH_UNIT()
NAMED_UNIT(*)
SI_UNIT(.MILLI.,.METRE.)
);
#405=(
LENGTH_UNIT()
NAMED_UNIT(*)
SI_UNIT($,.METRE.)
);
#406=(
NAMED_UNIT(*)
PLANE_ANGLE_UNIT()
SI_UNIT($,.RADIAN.)
);
#407=(
NAMED_UNIT(*)
SI_UNIT($,.STERADIAN.)
SOLID_ANGLE_UNIT()
);
#408=SHAPE_DEFINITION_REPRESENTATION(#409,#410);
#409=PRODUCT_DEFINITION_SHAPE('',$,#412);
#410=SHAPE_REPRESENTATION('',(#249),#402);
#411=PRODUCT_DEFINITION_CONTEXT('part definition',#416,'design');
#412=PRODUCT_DEFINITION('2026-08-07-17-38-42-650',
'spincoater_chuck_10mm_v0',#413,#411);
#413=PRODUCT_DEFINITION_FORMATION('',$,#418);
#414=PRODUCT_RELATED_PRODUCT_CATEGORY('spincoater_chuck_10mm_v0',
'spincoater_chuck_10mm_v0',(#418));
#415=APPLICATION_PROTOCOL_DEFINITION('international standard',
'automotive_design',2009,#416);
#416=APPLICATION_CONTEXT(
'Core Data for Automotive Mechanical Design Process');
#417=PRODUCT_CONTEXT('part definition',#416,'mechanical');
#418=PRODUCT('2026-08-07-17-38-42-650','spincoater_chuck_10mm_v0',$,(#417));
#419=PRESENTATION_STYLE_ASSIGNMENT((#420));
#420=SURFACE_STYLE_USAGE(.BOTH.,#421);
#421=SURFACE_SIDE_STYLE('',(#422));
#422=SURFACE_STYLE_FILL_AREA(#423);
#423=FILL_AREA_STYLE('Steel - Satin',(#424));
#424=FILL_AREA_STYLE_COLOUR('Steel - Satin',#425);
#425=COLOUR_RGB('Steel - Satin',0.627450980392157,0.627450980392157,0.627450980392157);
ENDSEC;
END-ISO-10303-21;
